<?xml version="1.0" encoding="UTF-8"?>
<svg id="layer" xmlns="http://www.w3.org/2000/svg" viewBox="0 0 32 32">
  <defs>
    <style>
      .cls-1 {
        fill: #fff;
        stroke-width: 0px;
      }
    </style>
  </defs>
  <path class="cls-1" d="m27.72,2c1.26,0,2.28,1.02,2.28,2.28v23.44c0,1.26-1.02,2.28-2.28,2.28H4.28c-1.26,0-2.28-1.02-2.28-2.28V4.28c0-1.26,1.02-2.28,2.28-2.28h23.44m0-2H4.28C1.92,0,0,1.92,0,4.28v23.44c0,2.37,1.92,4.28,4.28,4.28h23.44c2.37,0,4.28-1.92,4.28-4.28V4.28c0-2.37-1.92-4.28-4.28-4.28h0Z"/>
</svg>