<svg xmlns="http://www.w3.org/2000/svg" xmlns:v="https://svgstorm.com"
viewBox = "0 0 64 64"
width="64"
height="64">
<g fill="None" fill-opacity="0.0" stroke="#000000" stroke-opacity="0.00" stroke-width="0.3"><path d="
M 0.00 55.00
C 15.73 47.99 3.89 33.27 10.31 21.31 C 16.72 9.35 32.43 5.81 44.00 12.00
C 47.03 7.53 52.02 4.43 55.00 0.00
L 0.00 0.00
L 0.00 55.00 Z"/>
</g>
<g fill="None" fill-opacity="0.0" stroke="#FFFFFF" stroke-opacity="0.88" stroke-width="0.3"><path d="
M 0.00 55.00
L 0.00 64.00
L 8.00 64.00
C 10.66 60.12 14.23 56.31 18.00 53.00
C 19.05 52.08 18.06 52.34 19.00 53.00
C 26.90 59.78 42.30 56.13 49.00 49.00
C 47.58 46.24 44.35 44.73 43.00 42.00
C 37.93 44.99 32.28 48.68 26.00 46.00
C 29.11 41.20 33.36 37.42 37.70 33.70 C 42.04 29.99 50.27 36.69 56.00 37.00
C 54.91 30.22 58.33 21.09 54.00 16.00
C 57.96 14.31 60.71 9.92 64.00 7.00
L 64.00 0.00
L 55.00 0.00
C 52.02 4.43 47.03 7.53 44.00 12.00
C 32.43 5.81 16.72 9.35 10.31 21.31 C 3.89 33.27 15.73 47.99 0.00 55.00
M 53.00 18.00
C 53.74 18.74 52.18 17.18 53.00 18.00
M 36.00 20.00
C 29.29 24.69 24.61 32.28 18.00 37.00
C 13.75 26.56 25.52 16.26 36.00 19.00
C 37.36 19.39 36.41 19.61 36.00 20.00
M 51.00 19.00
C 51.74 19.74 50.18 18.18 51.00 19.00
M 25.00 45.00
C 25.74 45.74 24.18 44.18 25.00 45.00 Z"/>
</g>
<g fill="None" fill-opacity="0.0" stroke="#000000" stroke-opacity="0.00" stroke-width="0.3"><path d="
M 19.00 53.00
C 18.71 52.75 18.00 53.00 18.00 53.00
C 14.23 56.31 10.66 60.12 8.00 64.00
L 64.00 64.00
L 64.00 7.00
C 60.71 9.92 57.96 14.31 54.00 16.00
C 58.33 21.09 54.91 30.22 56.00 37.00
C 50.27 36.69 42.04 29.99 37.70 33.70 C 33.36 37.42 29.11 41.20 26.00 46.00
C 32.28 48.68 37.93 44.99 43.00 42.00
C 44.35 44.73 47.58 46.24 49.00 49.00
C 42.30 56.13 26.90 59.78 19.00 53.00 Z"/>
</g>
<g fill="None" fill-opacity="0.0" stroke="#000000" stroke-opacity="0.00" stroke-width="0.3"><path d="
M 53.00 18.00
C 52.18 17.18 53.74 18.74 53.00 18.00 Z"/>
</g>
<g fill="None" fill-opacity="0.0" stroke="#000000" stroke-opacity="0.00" stroke-width="0.3"><path d="
M 36.00 20.00
C 36.23 19.84 36.00 19.00 36.00 19.00
C 25.52 16.26 13.75 26.56 18.00 37.00
C 24.61 32.28 29.29 24.69 36.00 20.00 Z"/>
</g>
<g fill="None" fill-opacity="0.0" stroke="#FFFFFF" stroke-opacity="0.13" stroke-width="0.3"><path d="
M 36.00 20.00
C 36.41 19.61 37.36 19.39 36.00 19.00
C 36.00 19.00 36.23 19.84 36.00 20.00 Z"/>
</g>
<g fill="None" fill-opacity="0.0" stroke="#FFFFFF" stroke-opacity="0.57" stroke-width="0.3"><path d="
M 51.00 19.00
C 50.18 18.18 51.74 19.74 51.00 19.00 Z"/>
</g>
<g fill="None" fill-opacity="0.0" stroke="#FFFFFF" stroke-opacity="0.57" stroke-width="0.3"><path d="
M 25.00 45.00
C 24.18 44.18 25.74 45.74 25.00 45.00 Z"/>
</g>
<g fill="None" fill-opacity="0.0" stroke="#FFFFFF" stroke-opacity="0.18" stroke-width="0.3"><path d="
M 18.00 53.00
C 18.00 53.00 18.71 52.75 19.00 53.00
C 18.06 52.34 19.05 52.08 18.00 53.00 Z"/>
</g>
<g fill="#000000" fill-opacity="0.00" stroke="None">
<path d="
M 0.00 55.00
C 15.73 47.99 3.89 33.27 10.31 21.31 C 16.72 9.35 32.43 5.81 44.00 12.00
C 47.03 7.53 52.02 4.43 55.00 0.00
L 0.00 0.00
L 0.00 55.00 Z"/>
</g>
<g fill="#FFFFFF" fill-opacity="0.88" stroke="None">
<path d="
M 0.00 55.00
L 0.00 64.00
L 8.00 64.00
C 10.66 60.12 14.23 56.31 18.00 53.00
C 19.05 52.08 18.06 52.34 19.00 53.00
C 26.90 59.78 42.30 56.13 49.00 49.00
C 47.58 46.24 44.35 44.73 43.00 42.00
C 37.93 44.99 32.28 48.68 26.00 46.00
C 29.11 41.20 33.36 37.42 37.70 33.70 C 42.04 29.99 50.27 36.69 56.00 37.00
C 54.91 30.22 58.33 21.09 54.00 16.00
C 57.96 14.31 60.71 9.92 64.00 7.00
L 64.00 0.00
L 55.00 0.00
C 52.02 4.43 47.03 7.53 44.00 12.00
C 32.43 5.81 16.72 9.35 10.31 21.31 C 3.89 33.27 15.73 47.99 0.00 55.00
M 53.00 18.00
C 53.74 18.74 52.18 17.18 53.00 18.00
M 36.00 20.00
C 29.29 24.69 24.61 32.28 18.00 37.00
C 13.75 26.56 25.52 16.26 36.00 19.00
C 37.36 19.39 36.41 19.61 36.00 20.00
M 51.00 19.00
C 51.74 19.74 50.18 18.18 51.00 19.00
M 25.00 45.00
C 25.74 45.74 24.18 44.18 25.00 45.00 Z"/>
</g>
<g fill="#000000" fill-opacity="0.00" stroke="None">
<path d="
M 19.00 53.00
C 18.71 52.75 18.00 53.00 18.00 53.00
C 14.23 56.31 10.66 60.12 8.00 64.00
L 64.00 64.00
L 64.00 7.00
C 60.71 9.92 57.96 14.31 54.00 16.00
C 58.33 21.09 54.91 30.22 56.00 37.00
C 50.27 36.69 42.04 29.99 37.70 33.70 C 33.36 37.42 29.11 41.20 26.00 46.00
C 32.28 48.68 37.93 44.99 43.00 42.00
C 44.35 44.73 47.58 46.24 49.00 49.00
C 42.30 56.13 26.90 59.78 19.00 53.00 Z"/>
</g>
<g fill="#000000" fill-opacity="0.00" stroke="None">
<path d="
M 53.00 18.00
C 52.18 17.18 53.74 18.74 53.00 18.00 Z"/>
</g>
<g fill="#000000" fill-opacity="0.00" stroke="None">
<path d="
M 36.00 20.00
C 36.23 19.84 36.00 19.00 36.00 19.00
C 25.52 16.26 13.75 26.56 18.00 37.00
C 24.61 32.28 29.29 24.69 36.00 20.00 Z"/>
</g>
<g fill="#FFFFFF" fill-opacity="0.13" stroke="None">
<path d="
M 36.00 20.00
C 36.41 19.61 37.36 19.39 36.00 19.00
C 36.00 19.00 36.23 19.84 36.00 20.00 Z"/>
</g>
<g fill="#FFFFFF" fill-opacity="0.57" stroke="None">
<path d="
M 51.00 19.00
C 50.18 18.18 51.74 19.74 51.00 19.00 Z"/>
</g>
<g fill="#FFFFFF" fill-opacity="0.57" stroke="None">
<path d="
M 25.00 45.00
C 24.18 44.18 25.74 45.74 25.00 45.00 Z"/>
</g>
<g fill="#FFFFFF" fill-opacity="0.18" stroke="None">
<path d="
M 18.00 53.00
C 18.00 53.00 18.71 52.75 19.00 53.00
C 18.06 52.34 19.05 52.08 18.00 53.00 Z"/>
</g>
</svg>
