<?xml version="1.0" standalone="no"?>
<!DOCTYPE svg PUBLIC "-//W3C//DTD SVG 20010904//EN"
 "http://www.w3.org/TR/2001/REC-SVG-20010904/DTD/svg10.dtd">
<svg version="1.0" xmlns="http://www.w3.org/2000/svg"
 width="156.000000pt" height="64.000000pt" viewBox="0 0 156.000000 64.000000"
 preserveAspectRatio="xMidYMid meet">

<g transform="translate(0.000000,64.000000) scale(0.100000,-0.100000)"
fill="#000000" stroke="none">
<path d="M214 601 c-29 -10 -61 -28 -72 -39 -11 -11 -32 -28 -46 -37 -13 -9
-37 -40 -52 -68 -25 -45 -28 -63 -28 -137 0 -74 3 -92 28 -137 15 -28 38 -59
51 -67 13 -9 33 -25 43 -36 26 -29 122 -60 182 -60 54 0 158 32 175 53 6 7 24
23 41 35 34 23 84 108 84 142 0 11 5 20 10 20 6 0 10 23 10 50 0 28 -4 50 -10
50 -5 0 -10 9 -10 20 0 34 -50 119 -84 142 -17 11 -36 27 -42 35 -19 23 -120
53 -176 53 -29 -1 -76 -9 -104 -19z m205 -28 c3 -5 26 -19 51 -31 60 -30 71
-39 100 -92 22 -39 25 -57 25 -137 -1 -79 -4 -96 -23 -122 -12 -17 -22 -34
-22 -38 0 -10 -83 -63 -99 -63 -6 0 -11 -4 -11 -10 0 -13 -67 -30 -120 -30
-47 0 -110 14 -119 27 -4 5 -24 18 -46 29 -22 12 -44 31 -50 43 -5 11 -13 21
-17 21 -21 0 -42 69 -42 140 -1 85 6 117 31 146 10 11 23 29 29 39 6 11 31 29
55 42 24 12 49 27 55 32 6 5 20 11 30 14 30 9 165 1 173 -10z"/>
<path d="M230 522 c-35 -18 -65 -42 -85 -71 -26 -37 -30 -51 -30 -111 0 -60 4
-74 30 -111 37 -52 151 -117 175 -100 8 6 26 16 39 21 13 6 36 19 52 30 17 13
30 16 34 10 8 -13 92 -13 100 0 3 5 0 10 -8 10 -8 0 -26 11 -39 25 -24 24 -25
26 -11 69 28 85 -24 184 -121 230 -30 14 -61 26 -68 26 -7 0 -38 -13 -68 -28z
m138 -40 c37 -35 68 -129 55 -168 l-9 -26 -43 36 c-74 62 -83 41 -20 -43 47
-61 45 -71 -13 -105 -37 -21 -37 -21 -73 -1 -96 51 -109 246 -21 317 33 28 89
23 124 -10z"/>
<path d="M992 574 c-21 -22 -22 -26 -7 -40 9 -9 19 -13 23 -10 3 4 0 11 -7 16
-12 7 -11 11 3 26 15 14 19 15 27 3 8 -12 10 -12 19 1 9 13 11 13 20 0 9 -13
11 -13 20 0 9 13 11 13 21 0 8 -11 12 -12 16 -2 6 16 23 15 23 -2 0 -14 -41
-26 -87 -26 -13 0 -31 -7 -40 -16 -9 -8 -23 -12 -31 -9 -8 3 -19 0 -23 -6 -4
-7 -39 -12 -91 -13 -77 -1 -90 2 -148 32 -62 32 -94 35 -55 5 55 -42 109 -57
200 -57 64 0 94 -4 104 -14 12 -12 12 -15 0 -22 -7 -5 -10 -12 -7 -16 4 -3 14
1 23 10 15 15 15 17 1 32 -18 18 -21 28 -6 19 6 -4 17 -1 25 5 13 11 15 6 15
-27 0 -38 -1 -39 -47 -53 -27 -8 -80 -14 -119 -14 -62 0 -81 4 -135 32 -61 32
-93 35 -54 5 57 -44 108 -58 205 -56 52 0 107 6 123 12 27 10 27 10 27 -28 0
-39 -19 -59 -42 -45 -6 4 -14 1 -18 -6 -5 -9 -36 -13 -92 -14 -77 -1 -90 2
-148 32 -62 32 -94 35 -55 5 55 -42 109 -57 200 -57 64 0 94 -4 104 -14 12
-12 12 -15 0 -22 -7 -5 -10 -12 -7 -16 4 -3 14 1 23 10 15 15 15 17 1 32 -18
18 -21 28 -6 19 6 -4 17 -1 25 5 13 11 15 6 15 -27 0 -38 -1 -39 -47 -53 -27
-8 -80 -14 -119 -14 -62 0 -81 4 -135 32 -61 32 -93 35 -54 5 57 -44 108 -58
205 -56 52 0 107 6 123 12 27 10 27 10 27 -28 0 -39 -19 -59 -42 -45 -6 4 -14
1 -18 -6 -5 -9 -36 -13 -92 -14 -77 -1 -90 2 -148 32 -62 32 -94 35 -55 5 46
-35 111 -56 175 -57 91 -1 160 6 166 16 3 4 106 8 230 8 l224 0 0 31 c0 26 2
30 15 19 8 -6 19 -9 25 -5 15 10 12 -2 -7 -20 -13 -14 -14 -18 -3 -25 11 -7
10 -12 -4 -26 -15 -14 -19 -15 -27 -3 -8 12 -10 12 -19 -1 -9 -13 -11 -13 -20
0 -9 13 -11 13 -20 0 -9 -13 -11 -13 -20 0 -9 13 -11 13 -20 0 -9 -13 -11 -13
-20 0 -9 13 -11 13 -20 0 -9 -13 -11 -13 -20 0 -9 13 -11 13 -20 0 -9 -13 -11
-13 -20 0 -9 13 -11 13 -20 0 -9 -13 -11 -13 -20 0 -9 13 -11 13 -20 0 -9 -13
-11 -13 -20 0 -9 13 -11 13 -20 0 -9 -13 -11 -13 -20 0 -9 13 -11 13 -20 0 -9
-13 -11 -13 -20 0 -9 13 -11 13 -20 0 -9 -13 -11 -13 -20 0 -9 13 -11 13 -20
0 -9 -13 -11 -13 -19 0 -6 8 -13 11 -17 8 -3 -4 1 -15 11 -24 14 -15 18 -15
26 -3 8 12 10 12 19 -1 9 -13 11 -13 20 0 9 13 11 13 20 0 9 -13 11 -13 20 0
9 13 11 13 20 0 9 -13 11 -13 20 0 9 13 11 13 20 0 9 -13 11 -13 20 0 9 13 11
13 20 0 9 -13 11 -13 20 0 9 13 11 13 20 0 9 -13 11 -13 20 0 9 13 11 13 20 0
9 -13 11 -13 20 0 9 13 11 13 20 0 9 -13 11 -13 20 0 9 13 11 13 20 0 9 -13
11 -13 20 0 9 13 11 13 20 0 9 -13 11 -13 20 0 8 13 11 13 19 1 7 -11 14 -9
36 14 22 21 25 29 14 35 -11 7 -9 13 10 29 21 19 22 22 7 36 -9 9 -20 14 -25
11 -22 -14 -41 7 -41 44 l0 38 35 -11 c37 -11 59 -2 35 14 -8 5 -27 12 -42 16
-25 5 -28 10 -28 45 0 34 2 39 15 28 8 -6 19 -9 25 -5 15 9 12 -1 -6 -19 -14
-15 -14 -17 1 -32 9 -9 19 -13 23 -10 3 4 0 11 -8 16 -12 7 -10 12 9 29 21 19
22 22 7 36 -9 9 -20 14 -25 11 -22 -14 -41 7 -41 44 l0 38 35 -11 c37 -11 59
-2 35 14 -8 5 -27 12 -42 16 -23 4 -28 11 -28 34 l0 29 -137 1 c-114 1 -129 3
-88 10 78 14 222 14 239 0 8 -7 20 -10 26 -6 15 9 12 -1 -6 -19 -14 -15 -14
-17 1 -32 9 -9 19 -13 23 -10 3 4 0 11 -8 16 -12 7 -10 13 10 30 20 18 22 23
10 30 -8 6 -23 10 -32 10 -9 0 -24 7 -33 17 -14 14 -18 14 -26 2 -6 -9 -12
-10 -16 -4 -5 6 -28 11 -53 11 -25 0 -48 -5 -52 -11 -5 -6 -11 -5 -18 5 -9 13
-11 13 -21 0 -8 -11 -12 -12 -16 -2 -6 16 -27 16 -20 -1 4 -10 -4 -13 -26 -12
-18 1 -35 -3 -39 -9 -4 -6 -10 -7 -15 -3 -4 5 -1 12 7 17 8 5 11 12 7 17 -5 4
-12 1 -18 -7 -8 -13 -10 -13 -19 0 -9 13 -11 13 -20 0 -9 -13 -11 -13 -20 0
-9 13 -11 13 -20 0 -9 -13 -11 -13 -20 0 -9 13 -11 13 -21 0 -8 -11 -12 -12
-16 -2 -7 17 -15 14 -41 -14z m458 -74 c0 -16 -5 -19 -29 -14 -38 8 -273 -24
-317 -42 -48 -20 -54 -18 -54 21 0 28 5 38 23 45 12 5 102 9 200 9 170 1 177
0 177 -19z m-22 -36 c18 -5 22 -13 22 -46 0 -33 -3 -39 -16 -34 -9 3 -31 6
-50 6 -30 0 -34 3 -34 25 0 26 -15 34 -23 13 -2 -7 -8 -10 -12 -6 -5 5 2 17
15 28 23 20 56 25 98 14z m-167 -23 c-9 -6 -12 -20 -9 -40 4 -28 2 -31 -21
-31 -15 0 -59 -9 -99 -20 -39 -11 -74 -20 -77 -20 -3 0 -5 16 -5 35 0 29 5 37
27 46 19 7 28 6 33 -2 5 -8 14 -5 29 7 26 23 54 32 101 33 24 0 31 -2 21 -8z
m167 -77 c18 -5 22 -13 22 -45 0 -37 -1 -38 -29 -33 -38 8 -198 -13 -289 -37
-40 -10 -74 -19 -77 -19 -3 0 -5 16 -5 35 0 29 5 37 26 45 35 14 34 14 34 -20
0 -34 5 -37 26 -16 19 20 18 46 -3 47 -31 1 39 19 132 33 106 16 132 18 163
10z m0 -100 c18 -5 22 -13 22 -45 0 -37 -1 -38 -29 -33 -38 8 -198 -13 -289
-37 -40 -10 -75 -19 -78 -19 -3 0 -4 17 -2 37 3 36 5 38 63 56 56 17 210 44
265 46 14 0 35 -2 48 -5z m0 -100 c13 -4 22 -14 22 -25 0 -18 -10 -19 -167
-18 -181 1 -185 8 -18 33 106 16 132 18 163 10z"/>
<path d="M1210 590 c0 -5 5 -10 10 -10 6 0 10 5 10 10 0 6 -4 10 -10 10 -5 0
-10 -4 -10 -10z"/>
<path d="M1490 431 c0 -5 6 -12 13 -14 9 -4 8 -8 -3 -16 -8 -5 -11 -13 -8 -17
4 -3 14 1 23 10 15 14 15 18 1 31 -17 17 -26 19 -26 6z"/>
<path d="M982 364 c-11 -12 -10 -17 3 -30 9 -9 19 -13 23 -10 3 4 0 12 -8 17
-11 8 -12 12 -2 16 13 5 17 23 5 23 -5 -1 -14 -7 -21 -16z"/>
<path d="M1490 231 c0 -5 6 -12 13 -14 9 -4 8 -8 -3 -16 -8 -5 -11 -13 -8 -17
4 -3 14 1 23 10 15 14 15 18 1 31 -17 17 -26 19 -26 6z"/>
<path d="M982 164 c-11 -12 -10 -17 3 -30 9 -9 19 -13 23 -10 3 4 0 12 -8 17
-11 8 -12 12 -2 16 13 5 17 23 5 23 -5 -1 -14 -7 -21 -16z"/>
</g>
</svg>
